<?xml version="1.0" encoding="UTF-8"?>
<svg xmlns="http://www.w3.org/2000/svg" version="1.1" width="100" height="100" viewBox="0 0 100 100"><rect x="0" y="0" width="100" height="100" fill="#ffffff"/><g transform="scale(3.448)"><g transform="translate(0,0)"><path fill-rule="evenodd" d="M9 0L9 1L11 1L11 2L9 2L9 3L8 3L8 5L9 5L9 6L8 6L8 7L9 7L9 9L8 9L8 8L5 8L5 9L2 9L2 8L0 8L0 10L2 10L2 11L0 11L0 12L2 12L2 13L1 13L1 14L3 14L3 12L5 12L5 13L7 13L7 14L6 14L6 15L5 15L5 14L4 14L4 15L2 15L2 16L0 16L0 21L1 21L1 19L3 19L3 20L4 20L4 19L7 19L7 20L5 20L5 21L8 21L8 24L10 24L10 26L9 26L9 27L8 27L8 29L10 29L10 28L11 28L11 27L10 27L10 26L12 26L12 25L13 25L13 24L11 24L11 22L12 22L12 23L13 23L13 21L14 21L14 20L13 20L13 19L12 19L12 18L13 18L13 17L15 17L15 18L14 18L14 19L15 19L15 22L14 22L14 26L13 26L13 27L16 27L16 28L15 28L15 29L16 29L16 28L17 28L17 29L18 29L18 28L19 28L19 27L21 27L21 25L23 25L23 26L22 26L22 28L25 28L25 29L27 29L27 27L28 27L28 28L29 28L29 27L28 27L28 26L29 26L29 24L28 24L28 23L27 23L27 22L26 22L26 21L29 21L29 20L26 20L26 21L25 21L25 19L24 19L24 18L28 18L28 19L29 19L29 17L27 17L27 14L29 14L29 12L28 12L28 13L26 13L26 17L24 17L24 18L23 18L23 17L22 17L22 16L24 16L24 15L23 15L23 11L24 11L24 12L25 12L25 9L26 9L26 10L28 10L28 9L26 9L26 8L24 8L24 10L23 10L23 11L22 11L22 12L21 12L21 14L20 14L20 13L19 13L19 14L18 14L18 15L19 15L19 14L20 14L20 16L19 16L19 18L18 18L18 20L17 20L17 23L18 23L18 21L19 21L19 23L20 23L20 24L19 24L19 25L20 25L20 26L18 26L18 28L17 28L17 25L16 25L16 18L17 18L17 17L18 17L18 16L17 16L17 17L15 17L15 16L16 16L16 15L17 15L17 11L18 11L18 10L22 10L22 9L21 9L21 8L20 8L20 7L21 7L21 5L20 5L20 4L19 4L19 1L18 1L18 0L16 0L16 2L15 2L15 1L14 1L14 0L13 0L13 1L12 1L12 0ZM20 0L20 1L21 1L21 0ZM17 1L17 3L16 3L16 4L15 4L15 5L14 5L14 4L13 4L13 5L14 5L14 6L13 6L13 8L12 8L12 4L11 4L11 7L10 7L10 6L9 6L9 7L10 7L10 8L11 8L11 9L13 9L13 11L12 11L12 10L10 10L10 9L9 9L9 10L10 10L10 11L9 11L9 12L7 12L7 11L8 11L8 9L5 9L5 11L6 11L6 12L7 12L7 13L8 13L8 14L9 14L9 12L10 12L10 11L12 11L12 12L13 12L13 13L12 13L12 14L11 14L11 15L6 15L6 16L4 16L4 17L5 17L5 18L7 18L7 19L8 19L8 20L9 20L9 21L10 21L10 22L11 22L11 21L13 21L13 20L12 20L12 19L11 19L11 20L10 20L10 19L9 19L9 18L10 18L10 17L13 17L13 16L14 16L14 15L13 15L13 14L15 14L15 12L16 12L16 11L17 11L17 8L18 8L18 5L19 5L19 7L20 7L20 5L19 5L19 4L17 4L17 3L18 3L18 1ZM12 2L12 3L15 3L15 2ZM9 3L9 5L10 5L10 3ZM16 5L16 8L13 8L13 9L14 9L14 12L15 12L15 11L16 11L16 8L17 8L17 5ZM14 6L14 7L15 7L15 6ZM19 8L19 9L20 9L20 8ZM6 10L6 11L7 11L7 10ZM2 11L2 12L3 12L3 11ZM19 11L19 12L20 12L20 11ZM24 13L24 14L25 14L25 13ZM11 15L11 16L13 16L13 15ZM21 15L21 16L22 16L22 15ZM28 15L28 16L29 16L29 15ZM6 16L6 17L7 17L7 18L9 18L9 17L10 17L10 16L8 16L8 17L7 17L7 16ZM20 17L20 18L21 18L21 19L20 19L20 20L19 20L19 21L20 21L20 20L22 20L22 19L23 19L23 20L24 20L24 19L23 19L23 18L22 18L22 17ZM3 18L3 19L4 19L4 18ZM21 21L21 24L24 24L24 21ZM22 22L22 23L23 23L23 22ZM25 23L25 25L24 25L24 26L23 26L23 27L24 27L24 26L26 26L26 27L25 27L25 28L26 28L26 27L27 27L27 23ZM9 27L9 28L10 28L10 27ZM13 28L13 29L14 29L14 28ZM0 0L0 7L7 7L7 0ZM1 1L1 6L6 6L6 1ZM2 2L2 5L5 5L5 2ZM22 0L22 7L29 7L29 0ZM23 1L23 6L28 6L28 1ZM24 2L24 5L27 5L27 2ZM0 22L0 29L7 29L7 22ZM1 23L1 28L6 28L6 23ZM2 24L2 27L5 27L5 24Z" fill="#000000"/></g></g></svg>
