<?xml version="1.0" encoding="UTF-8"?>
<svg xmlns="http://www.w3.org/2000/svg" version="1.1" width="100" height="100" viewBox="0 0 100 100"><rect x="0" y="0" width="100" height="100" fill="#ffffff"/><g transform="scale(3.448)"><g transform="translate(0,0)"><path fill-rule="evenodd" d="M9 0L9 1L8 1L8 2L9 2L9 3L8 3L8 4L10 4L10 7L11 7L11 4L12 4L12 5L13 5L13 6L12 6L12 7L13 7L13 6L14 6L14 7L15 7L15 8L12 8L12 9L11 9L11 8L6 8L6 9L9 9L9 10L4 10L4 9L5 9L5 8L0 8L0 9L3 9L3 11L2 11L2 10L1 10L1 11L0 11L0 13L1 13L1 14L0 14L0 21L1 21L1 17L2 17L2 16L3 16L3 18L2 18L2 21L3 21L3 20L4 20L4 19L5 19L5 20L6 20L6 21L8 21L8 23L9 23L9 22L10 22L10 20L9 20L9 21L8 21L8 19L11 19L11 20L13 20L13 21L11 21L11 22L12 22L12 23L13 23L13 22L15 22L15 23L16 23L16 22L17 22L17 23L18 23L18 21L19 21L19 23L20 23L20 26L18 26L18 28L17 28L17 29L18 29L18 28L19 28L19 27L20 27L20 28L22 28L22 27L23 27L23 28L25 28L25 29L27 29L27 28L28 28L28 26L29 26L29 25L28 25L28 24L25 24L25 23L27 23L27 22L29 22L29 20L28 20L28 19L27 19L27 16L28 16L28 15L27 15L27 12L28 12L28 11L27 11L27 12L25 12L25 9L26 9L26 8L25 8L25 9L24 9L24 8L23 8L23 9L22 9L22 8L20 8L20 7L21 7L21 5L20 5L20 4L21 4L21 3L20 3L20 4L19 4L19 1L20 1L20 0L19 0L19 1L18 1L18 3L17 3L17 1L15 1L15 0L14 0L14 1L11 1L11 2L10 2L10 0ZM12 2L12 3L14 3L14 4L13 4L13 5L14 5L14 6L15 6L15 7L16 7L16 6L15 6L15 5L17 5L17 8L16 8L16 9L12 9L12 10L11 10L11 9L10 9L10 11L13 11L13 12L14 12L14 13L12 13L12 12L10 12L10 13L9 13L9 14L7 14L7 13L8 13L8 11L5 11L5 12L2 12L2 14L1 14L1 15L2 15L2 14L4 14L4 13L5 13L5 14L7 14L7 15L5 15L5 16L7 16L7 17L6 17L6 18L7 18L7 17L8 17L8 18L11 18L11 19L12 19L12 18L13 18L13 20L14 20L14 21L15 21L15 22L16 22L16 21L17 21L17 20L18 20L18 19L15 19L15 18L16 18L16 17L17 17L17 18L19 18L19 19L20 19L20 20L19 20L19 21L20 21L20 20L21 20L21 19L22 19L22 18L21 18L21 17L20 17L20 18L19 18L19 16L21 16L21 15L20 15L20 14L22 14L22 13L23 13L23 15L22 15L22 17L23 17L23 20L24 20L24 19L25 19L25 21L26 21L26 20L27 20L27 19L25 19L25 18L24 18L24 17L26 17L26 16L27 16L27 15L26 15L26 13L25 13L25 12L24 12L24 11L23 11L23 10L24 10L24 9L23 9L23 10L22 10L22 9L20 9L20 8L19 8L19 9L20 9L20 10L18 10L18 11L17 11L17 10L16 10L16 9L17 9L17 8L18 8L18 5L19 5L19 7L20 7L20 5L19 5L19 4L16 4L16 3L15 3L15 2ZM10 3L10 4L11 4L11 3ZM14 4L14 5L15 5L15 4ZM8 5L8 7L9 7L9 5ZM27 8L27 9L28 9L28 10L29 10L29 9L28 9L28 8ZM13 10L13 11L15 11L15 13L14 13L14 14L15 14L15 15L14 15L14 16L13 16L13 14L12 14L12 13L10 13L10 15L11 15L11 16L10 16L10 17L11 17L11 18L12 18L12 17L14 17L14 18L15 18L15 17L14 17L14 16L15 16L15 15L16 15L16 16L17 16L17 17L18 17L18 16L17 16L17 13L18 13L18 12L17 12L17 11L16 11L16 10ZM19 11L19 14L18 14L18 15L19 15L19 14L20 14L20 13L22 13L22 12L23 12L23 13L24 13L24 14L25 14L25 13L24 13L24 12L23 12L23 11L21 11L21 12L20 12L20 11ZM5 12L5 13L7 13L7 12ZM16 12L16 13L15 13L15 14L16 14L16 13L17 13L17 12ZM28 13L28 14L29 14L29 13ZM11 14L11 15L12 15L12 14ZM7 15L7 16L8 16L8 17L9 17L9 16L8 16L8 15ZM23 15L23 16L24 16L24 15ZM11 16L11 17L12 17L12 16ZM4 17L4 18L3 18L3 19L4 19L4 18L5 18L5 17ZM28 17L28 18L29 18L29 17ZM6 19L6 20L7 20L7 19ZM15 20L15 21L16 21L16 20ZM21 21L21 24L24 24L24 21ZM22 22L22 23L23 23L23 22ZM10 23L10 24L8 24L8 29L11 29L11 28L12 28L12 29L16 29L16 27L17 27L17 25L18 25L18 24L12 24L12 25L10 25L10 24L11 24L11 23ZM9 25L9 26L10 26L10 27L9 27L9 28L10 28L10 27L13 27L13 28L14 28L14 27L15 27L15 26L16 26L16 25L12 25L12 26L10 26L10 25ZM22 25L22 26L21 26L21 27L22 27L22 26L23 26L23 27L24 27L24 26L26 26L26 27L25 27L25 28L27 28L27 26L28 26L28 25L24 25L24 26L23 26L23 25ZM13 26L13 27L14 27L14 26ZM0 0L0 7L7 7L7 0ZM1 1L1 6L6 6L6 1ZM2 2L2 5L5 5L5 2ZM22 0L22 7L29 7L29 0ZM23 1L23 6L28 6L28 1ZM24 2L24 5L27 5L27 2ZM0 22L0 29L7 29L7 22ZM1 23L1 28L6 28L6 23ZM2 24L2 27L5 27L5 24Z" fill="#000000"/></g></g></svg>
