<?xml version="1.0" encoding="UTF-8"?>
<svg xmlns="http://www.w3.org/2000/svg" version="1.1" width="100" height="100" viewBox="0 0 100 100"><rect x="0" y="0" width="100" height="100" fill="#ffffff"/><g transform="scale(3.448)"><g transform="translate(0,0)"><path fill-rule="evenodd" d="M9 0L9 1L8 1L8 2L9 2L9 3L8 3L8 4L10 4L10 7L11 7L11 8L6 8L6 9L8 9L8 10L9 10L9 11L8 11L8 12L9 12L9 13L10 13L10 14L6 14L6 13L7 13L7 12L6 12L6 11L7 11L7 10L5 10L5 11L4 11L4 12L6 12L6 13L4 13L4 14L3 14L3 12L2 12L2 11L3 11L3 10L2 10L2 11L1 11L1 10L0 10L0 14L2 14L2 16L1 16L1 15L0 15L0 16L1 16L1 17L0 17L0 21L1 21L1 18L2 18L2 21L4 21L4 19L5 19L5 20L6 20L6 21L8 21L8 23L9 23L9 24L8 24L8 29L9 29L9 26L10 26L10 27L11 27L11 28L12 28L12 27L11 27L11 26L12 26L12 25L14 25L14 26L13 26L13 27L14 27L14 28L13 28L13 29L14 29L14 28L15 28L15 29L16 29L16 27L17 27L17 25L18 25L18 24L15 24L15 23L16 23L16 22L17 22L17 23L18 23L18 21L19 21L19 23L20 23L20 26L18 26L18 28L17 28L17 29L18 29L18 28L19 28L19 27L20 27L20 28L22 28L22 27L23 27L23 28L25 28L25 29L27 29L27 28L28 28L28 26L29 26L29 25L28 25L28 24L25 24L25 23L27 23L27 22L29 22L29 20L28 20L28 19L27 19L27 16L28 16L28 15L27 15L27 12L28 12L28 11L27 11L27 12L25 12L25 9L26 9L26 8L25 8L25 9L24 9L24 8L23 8L23 9L22 9L22 8L20 8L20 7L21 7L21 5L20 5L20 4L21 4L21 3L20 3L20 4L19 4L19 1L20 1L20 0L19 0L19 1L18 1L18 3L17 3L17 1L15 1L15 0L14 0L14 1L11 1L11 2L10 2L10 0ZM12 2L12 3L14 3L14 4L13 4L13 5L14 5L14 6L13 6L13 7L12 7L12 4L11 4L11 3L10 3L10 4L11 4L11 7L12 7L12 8L11 8L11 9L10 9L10 11L13 11L13 12L10 12L10 13L13 13L13 14L10 14L10 15L8 15L8 17L9 17L9 18L7 18L7 17L6 17L6 16L7 16L7 15L6 15L6 14L4 14L4 15L5 15L5 16L2 16L2 18L7 18L7 19L6 19L6 20L7 20L7 19L8 19L8 20L9 20L9 23L10 23L10 24L9 24L9 25L10 25L10 26L11 26L11 25L12 25L12 23L13 23L13 24L14 24L14 25L15 25L15 26L16 26L16 25L15 25L15 24L14 24L14 21L15 21L15 22L16 22L16 21L17 21L17 20L18 20L18 19L14 19L14 18L16 18L16 17L17 17L17 18L19 18L19 19L20 19L20 20L19 20L19 21L20 21L20 20L21 20L21 19L22 19L22 18L21 18L21 17L20 17L20 18L19 18L19 16L21 16L21 15L20 15L20 14L22 14L22 13L23 13L23 15L22 15L22 17L23 17L23 20L24 20L24 19L25 19L25 21L26 21L26 20L27 20L27 19L25 19L25 18L24 18L24 17L26 17L26 16L27 16L27 15L26 15L26 13L25 13L25 12L24 12L24 11L23 11L23 10L24 10L24 9L23 9L23 10L22 10L22 9L20 9L20 8L19 8L19 9L20 9L20 10L18 10L18 11L17 11L17 10L16 10L16 9L17 9L17 8L18 8L18 5L19 5L19 7L20 7L20 5L19 5L19 4L16 4L16 3L15 3L15 2ZM14 4L14 5L15 5L15 6L14 6L14 8L13 8L13 9L11 9L11 10L13 10L13 9L14 9L14 10L15 10L15 12L13 12L13 13L16 13L16 14L15 14L15 15L14 15L14 14L13 14L13 15L11 15L11 16L12 16L12 17L11 17L11 18L10 18L10 19L9 19L9 20L10 20L10 21L11 21L11 22L10 22L10 23L11 23L11 22L13 22L13 21L14 21L14 20L13 20L13 19L12 19L12 20L13 20L13 21L11 21L11 18L12 18L12 17L15 17L15 15L16 15L16 16L17 16L17 17L18 17L18 16L17 16L17 13L18 13L18 12L17 12L17 11L16 11L16 10L15 10L15 9L16 9L16 8L17 8L17 5L15 5L15 4ZM8 5L8 7L9 7L9 5ZM15 6L15 7L16 7L16 6ZM0 8L0 9L5 9L5 8ZM14 8L14 9L15 9L15 8ZM27 8L27 9L28 9L28 10L29 10L29 9L28 9L28 8ZM19 11L19 14L18 14L18 15L19 15L19 14L20 14L20 13L22 13L22 12L23 12L23 13L24 13L24 14L25 14L25 13L24 13L24 12L23 12L23 11L21 11L21 12L20 12L20 11ZM16 12L16 13L17 13L17 12ZM28 13L28 14L29 14L29 13ZM13 15L13 16L14 16L14 15ZM23 15L23 16L24 16L24 15ZM9 16L9 17L10 17L10 16ZM28 17L28 18L29 18L29 17ZM15 20L15 21L16 21L16 20ZM21 21L21 24L24 24L24 21ZM22 22L22 23L23 23L23 22ZM10 24L10 25L11 25L11 24ZM22 25L22 26L21 26L21 27L22 27L22 26L23 26L23 27L24 27L24 26L26 26L26 27L25 27L25 28L27 28L27 26L28 26L28 25L24 25L24 26L23 26L23 25ZM0 0L0 7L7 7L7 0ZM1 1L1 6L6 6L6 1ZM2 2L2 5L5 5L5 2ZM22 0L22 7L29 7L29 0ZM23 1L23 6L28 6L28 1ZM24 2L24 5L27 5L27 2ZM0 22L0 29L7 29L7 22ZM1 23L1 28L6 28L6 23ZM2 24L2 27L5 27L5 24Z" fill="#000000"/></g></g></svg>
