<?xml version="1.0" encoding="UTF-8"?>
<svg xmlns="http://www.w3.org/2000/svg" version="1.1" width="100" height="100" viewBox="0 0 100 100"><rect x="0" y="0" width="100" height="100" fill="#ffffff"/><g transform="scale(3.448)"><g transform="translate(0,0)"><path fill-rule="evenodd" d="M9 0L9 1L8 1L8 2L9 2L9 3L8 3L8 4L10 4L10 7L11 7L11 8L6 8L6 9L7 9L7 10L5 10L5 11L4 11L4 10L3 10L3 9L5 9L5 8L0 8L0 9L2 9L2 10L0 10L0 15L1 15L1 12L3 12L3 13L2 13L2 16L0 16L0 21L1 21L1 17L2 17L2 16L3 16L3 18L2 18L2 19L3 19L3 20L2 20L2 21L3 21L3 20L6 20L6 21L7 21L7 20L8 20L8 23L9 23L9 21L10 21L10 22L12 22L12 21L14 21L14 22L13 22L13 23L10 23L10 24L8 24L8 29L10 29L10 28L12 28L12 29L16 29L16 27L17 27L17 25L18 25L18 24L15 24L15 23L16 23L16 22L17 22L17 23L18 23L18 21L19 21L19 23L20 23L20 26L18 26L18 28L17 28L17 29L18 29L18 28L19 28L19 27L20 27L20 28L22 28L22 27L23 27L23 28L25 28L25 29L27 29L27 28L28 28L28 26L29 26L29 25L28 25L28 24L25 24L25 23L27 23L27 22L29 22L29 20L28 20L28 19L27 19L27 16L28 16L28 15L27 15L27 12L28 12L28 11L27 11L27 12L25 12L25 9L26 9L26 8L25 8L25 9L24 9L24 8L23 8L23 9L22 9L22 8L20 8L20 7L21 7L21 5L20 5L20 4L21 4L21 3L20 3L20 4L19 4L19 1L20 1L20 0L19 0L19 1L18 1L18 3L17 3L17 1L15 1L15 0L14 0L14 1L11 1L11 2L10 2L10 0ZM12 2L12 3L14 3L14 4L13 4L13 5L12 5L12 4L11 4L11 3L10 3L10 4L11 4L11 7L12 7L12 6L13 6L13 8L14 8L14 9L12 9L12 8L11 8L11 9L10 9L10 11L12 11L12 12L10 12L10 13L13 13L13 14L9 14L9 13L8 13L8 14L7 14L7 13L5 13L5 12L7 12L7 11L8 11L8 12L9 12L9 10L7 10L7 11L5 11L5 12L4 12L4 11L3 11L3 10L2 10L2 11L3 11L3 12L4 12L4 13L3 13L3 16L4 16L4 17L5 17L5 16L4 16L4 14L5 14L5 15L6 15L6 16L9 16L9 15L10 15L10 16L11 16L11 17L10 17L10 19L9 19L9 20L11 20L11 21L12 21L12 20L14 20L14 21L15 21L15 22L16 22L16 21L17 21L17 20L18 20L18 19L12 19L12 18L11 18L11 17L13 17L13 18L14 18L14 17L15 17L15 18L16 18L16 17L17 17L17 18L19 18L19 19L20 19L20 20L19 20L19 21L20 21L20 20L21 20L21 19L22 19L22 18L21 18L21 17L20 17L20 18L19 18L19 16L21 16L21 15L20 15L20 14L22 14L22 13L23 13L23 15L22 15L22 17L23 17L23 20L24 20L24 19L25 19L25 21L26 21L26 20L27 20L27 19L25 19L25 18L24 18L24 17L26 17L26 16L27 16L27 15L26 15L26 13L25 13L25 12L24 12L24 11L23 11L23 10L24 10L24 9L23 9L23 10L22 10L22 9L20 9L20 8L19 8L19 9L20 9L20 10L18 10L18 11L17 11L17 10L16 10L16 9L17 9L17 8L18 8L18 5L19 5L19 7L20 7L20 5L19 5L19 4L16 4L16 3L15 3L15 2ZM14 4L14 5L13 5L13 6L14 6L14 8L15 8L15 9L14 9L14 10L15 10L15 11L14 11L14 12L13 12L13 13L14 13L14 14L13 14L13 15L11 15L11 16L13 16L13 17L14 17L14 16L15 16L15 15L16 15L16 16L17 16L17 17L18 17L18 16L17 16L17 13L18 13L18 12L17 12L17 11L16 11L16 10L15 10L15 9L16 9L16 8L17 8L17 5L15 5L15 4ZM8 5L8 7L9 7L9 5ZM14 5L14 6L15 6L15 7L16 7L16 6L15 6L15 5ZM27 8L27 9L28 9L28 10L29 10L29 9L28 9L28 8ZM11 9L11 10L12 10L12 11L13 11L13 10L12 10L12 9ZM19 11L19 14L18 14L18 15L19 15L19 14L20 14L20 13L22 13L22 12L23 12L23 13L24 13L24 14L25 14L25 13L24 13L24 12L23 12L23 11L21 11L21 12L20 12L20 11ZM14 12L14 13L15 13L15 14L14 14L14 15L13 15L13 16L14 16L14 15L15 15L15 14L16 14L16 13L17 13L17 12L16 12L16 13L15 13L15 12ZM28 13L28 14L29 14L29 13ZM6 14L6 15L7 15L7 14ZM8 14L8 15L9 15L9 14ZM23 15L23 16L24 16L24 15ZM6 17L6 18L5 18L5 19L6 19L6 20L7 20L7 19L6 19L6 18L9 18L9 17ZM28 17L28 18L29 18L29 17ZM3 18L3 19L4 19L4 18ZM15 20L15 21L16 21L16 20ZM21 21L21 24L24 24L24 21ZM22 22L22 23L23 23L23 22ZM13 23L13 24L14 24L14 25L12 25L12 24L11 24L11 25L9 25L9 26L10 26L10 27L9 27L9 28L10 28L10 27L13 27L13 28L15 28L15 27L13 27L13 26L14 26L14 25L15 25L15 26L16 26L16 25L15 25L15 24L14 24L14 23ZM11 25L11 26L12 26L12 25ZM22 25L22 26L21 26L21 27L22 27L22 26L23 26L23 27L24 27L24 26L26 26L26 27L25 27L25 28L27 28L27 26L28 26L28 25L24 25L24 26L23 26L23 25ZM0 0L0 7L7 7L7 0ZM1 1L1 6L6 6L6 1ZM2 2L2 5L5 5L5 2ZM22 0L22 7L29 7L29 0ZM23 1L23 6L28 6L28 1ZM24 2L24 5L27 5L27 2ZM0 22L0 29L7 29L7 22ZM1 23L1 28L6 28L6 23ZM2 24L2 27L5 27L5 24Z" fill="#000000"/></g></g></svg>
